# xmcd CD database file
#
# Track frame offsets:
#	150
#	29382
#	54845
#	74722
#	87100
#
# Disc length: 2564 seconds
#
# Revision: 1
# Processed by: cddbd v1.5.2PL0 Copyright (c) Steve Scherf et al.
# Submitted via: CDex 1.70beta2
#
DISCID=3b0a0205
DTITLE=King Crimson - Lizard
DYEAR=2000
DGENRE=New Age
TTITLE0=Cirkus- Including Entry Of The Chameleons
TTITLE1=Indoor Games
TTITLE2=Happy Family
TTITLE3=Lady Of The Dancing Water
TTITLE4=Lizard
EXTD=YEAR: 2000
EXTT0=
EXTT1=
EXTT2=
EXTT3=
EXTT4=
PLAYORDER=
